<?xml version="1.0" encoding="UTF-8"?>
<svg id="Layer_1" xmlns="http://www.w3.org/2000/svg" version="1.1" xmlns:xlink="http://www.w3.org/1999/xlink" viewBox="0 0 1395.53 765.06">
  <!-- Generator: Adobe Illustrator 30.0.0, SVG Export Plug-In . SVG Version: 2.1.1 Build 123)  -->
  <defs>
    <style>
      .st0 {
        fill: url(#linear-gradient);
      }
    </style>
    <linearGradient id="linear-gradient" x1="3.52" y1="382.53" x2="1392.01" y2="382.53" gradientUnits="userSpaceOnUse">
      <stop offset="0" stop-color="#000"/>
      <stop offset="1" stop-color="#23b5c4"/>
    </linearGradient>
  </defs>
  <path class="st0" d="M1322.7,247.58c-90.76-70.47-196.13-131.22-290.29-199.47-29.03-21.04-62.43-35.59-97.89-40.87-114.59-17.23-224.78,61.15-250.41,172.82-15.76,65.31-25.52,133.89-35.49,202.47h0c-8.25,56.79-16.95,113.34-29.66,167.81-10.87,46.58-34.83,86.16-82.14,102.76-58.28,20.45-91.15,3.28-138.66-27.6-90.02-58.51-178.05-123.15-263.96-187.34-37.54-27.86-42.92-83.55-9.83-116.62L405.11,114.02c59.83-38.93,118.61,33.86,62.95,83.18l-207.98,156.86c-2.19,1.65-4.2,3.56-5.86,5.74-8.48,11.16-9.51,23.15-1.22,34.16,2.22,2.95,5.02,5.41,8.06,7.52l198.24,137.42c20.25,14.83,50.38,8.84,63.6-8.73,17.06-20.76,12.23-51.86-9.27-67.96l-112.6-84.32c-1.83-1.37-1.97-4.09-.25-5.6,83.38-73.91,219.07-123.43,182.31-261.04-24.99-93.55-137.88-135.44-219.43-84.91-93.29,74.9-206.78,140.19-296.99,217.26-86.58,73.97-83.72,204.08,6.18,273.89,90.76,70.47,196.12,131.22,290.29,199.47,29.03,21.04,62.43,35.59,97.89,40.87,114.58,17.22,224.79-61.14,250.41-172.82,15.76-65.31,25.52-133.89,35.49-202.47h0c8.25-56.79,16.95-113.34,29.66-167.81,10.87-46.58,34.83-86.16,82.14-102.76,58.28-20.45,91.15-3.28,138.66,27.6,90.02,58.51,178.05,123.15,263.96,187.34,37.54,27.86,42.92,83.55,9.83,116.62l-280.73,207.52c-59.83,38.93-118.61-33.86-62.95-83.18l207.98-156.86c2.19-1.65,4.2-3.56,5.86-5.74,8.48-11.16,9.51-23.15,1.22-34.16-2.22-2.95-5.02-5.41-8.06-7.52l-198.24-137.42c-20.25-14.83-50.38-8.84-63.6,8.73-17.06,20.76-12.23,51.86,9.28,67.96l112.6,84.32c1.83,1.37,1.97,4.09.25,5.6-83.38,73.91-219.07,123.43-182.31,261.04,24.99,93.55,137.88,135.44,219.43,84.91,93.29-74.9,206.78-140.19,296.99-217.26,86.58-73.97,83.72-204.08-6.18-273.89Z"/>
</svg>